<svg xmlns="http://www.w3.org/2000/svg" viewBox="0 0 160 160" width="100%" height="100%">
  <defs>
    <linearGradient id="onionGrad" x1="0%" y1="0%" x2="100%" y2="100%">
      <stop offset="0%" stop-color="#b83280" />
      <stop offset="50%" stop-color="#801b55" />
      <stop offset="100%" stop-color="#550c37" />
    </linearGradient>
    <linearGradient id="sproutGrad" x1="0%" y1="100%" x2="0%" y2="0%">
      <stop offset="0%" stop-color="#48bb78" />
      <stop offset="100%" stop-color="#2f855a" />
    </linearGradient>
    <filter id="shadow" x="-10%" y="-10%" width="120%" height="120%">
      <feDropShadow dx="0" dy="4" stdDeviation="4" flood-opacity="0.15" />
    </filter>
  </defs>
  <path d="M80 45 C75 25, 60 18, 55 10 C68 22, 74 35, 78 45 Z" fill="url(#sproutGrad)" />
  <path d="M80 45 C85 20, 100 15, 105 8 C92 20, 86 35, 82 45 Z" fill="#38a169" />
  <ellipse cx="80" cy="92" rx="48" ry="46" fill="url(#onionGrad)" filter="url(#shadow)" />
  <path d="M80 46 C60 60, 48 85, 48 95 C48 115, 62 135, 80 138" fill="none" stroke="#d53f8c" stroke-width="2.5" opacity="0.6" stroke-linecap="round" />
  <path d="M80 46 C100 60, 112 85, 112 95 C112 115, 98 135, 80 138" fill="none" stroke="#d53f8c" stroke-width="2.5" opacity="0.6" stroke-linecap="round" />
  <path d="M80 46 C70 65, 65 85, 65 95 C65 115, 72 135, 80 138" fill="none" stroke="#f687b3" stroke-width="2" opacity="0.5" />
  <path d="M80 46 C90 65, 95 85, 95 95 C95 115, 88 135, 80 138" fill="none" stroke="#f687b3" stroke-width="2" opacity="0.5" />
  <path d="M74 48 L80 42 L86 48 Z" fill="#b83280" />
  <path d="M75 137 Q72 148 70 154 M80 138 Q80 150 81 156 M85 137 Q88 148 90 154" fill="none" stroke="#d69e2e" stroke-width="2" stroke-linecap="round" />
</svg>
